<svg id="Layer_1" data-name="Layer 1" xmlns="http://www.w3.org/2000/svg" viewBox="0 0 22 17.84"><defs><style>.cls-1{fill:#49310a}</style></defs><title>icon-twitter</title><path class="cls-1" d="M19.42 2.83a4.33 4.33 0 0 0 2-2.49 10.62 10.62 0 0 1-2.87 1.05A4.26 4.26 0 0 0 15.26 0 4.42 4.42 0 0 0 12 1.32a4.35 4.35 0 0 0-1.29 3.18 3.16 3.16 0 0 0 .14 1A12.1 12.1 0 0 1 1.53.81a4.52 4.52 0 0 0-.62 2.26 4.36 4.36 0 0 0 2 3.77 5 5 0 0 1-2-.57 4.48 4.48 0 0 0 1 2.92 4.43 4.43 0 0 0 2.59 1.58 4.84 4.84 0 0 1-1.2.14 2.24 2.24 0 0 1-.81-.1 4.32 4.32 0 0 0 1.58 2.25A4.46 4.46 0 0 0 6.7 14a8.8 8.8 0 0 1-5.6 1.91 7.67 7.67 0 0 1-1.1 0 12.46 12.46 0 0 0 6.94 2 12.31 12.31 0 0 0 6.94-2A12.44 12.44 0 0 0 18.32 11a13.17 13.17 0 0 0 1.43-6v-.55A9.51 9.51 0 0 0 22 2.1a10 10 0 0 1-2.58.73z"/></svg>