<svg id="Vector" xmlns="http://www.w3.org/2000/svg" viewBox="0 0 224.23 321.51"><defs><style>.cls-1{fill:#666}.cls-2{fill:#f0dbbd}.cls-3{fill:#ccb293}.cls-4{fill:#333}.cls-5{fill:#b28b60}.cls-6{fill:#ccab81}.cls-7{fill:#664c12}.cls-8{fill:#49310a}.cls-9{fill:#2f3c47}.cls-10{fill:#49535e}.cls-11{fill:#fff}.cls-12{fill:#e4eef9}.cls-13{fill:#d2e3f7}</style></defs><title>jeremy</title><path class="cls-1" d="M109.87 0A44 44 0 0 0 96 2.28a46.36 46.36 0 0 0-21.13 14.44 41.59 41.59 0 0 0-3.47 4.93c-4.9 8.21-7.19 18.56-6.82 30.77 0 .67.05 1.34.09 2 .05 1 .11 1.88.18 2.71q.08 1 .18 2A6.37 6.37 0 0 0 60.44 57a6.08 6.08 0 0 0-1.67.24 6.33 6.33 0 0 0-4.59 4.71c-1.06 4.05.82 9.27 1.73 11.31 1.17 2.73 4.72 9.47 8.22 12.92 1.59 1.57 3 2.33 4.35 2.33a3.22 3.22 0 0 0 1.69-.51 4 4 0 0 0 .94-.8c1.19 3.84 2.53 7.75 4 11.64.71 1.91 1.44 3.8 2.17 5.63a66.32 66.32 0 0 0 6.52 12.88 35.67 35.67 0 0 0 2.44 3.18 28.72 28.72 0 0 0 2.19 2.27c0 1 .07 2 .09 2.94a133.63 133.63 0 0 1-1.57 23 22.3 22.3 0 0 0-4.64 2.34 38.47 38.47 0 0 1-5.9 3.17c-13.51 6-36.76 10.88-37 10.93-5.61 1.43-6.68 5.46-9 14.3-.4 1.48-.83 3.11-1.34 4.91-1.67 6-5.8 17.86-10.5 30.27C12.71 230 7.65 241.9 4.59 247.37.84 254.09-.8 257.48.37 259.46c.76 1.3 2.41 1.45 3.57 1.45a26.44 26.44 0 0 0 4.41-.49 83.11 83.11 0 0 0 1.12 16.86A198.11 198.11 0 0 0 14 299.07a45.69 45.69 0 0 1 1.25 5.49 19.45 19.45 0 0 1 .18 2.69c0 7.31 10 8.94 26.25 11a153.63 153.63 0 0 0 17.58.85 234.35 234.35 0 0 0 41-3.52 110 110 0 0 0 20.5-5.68c1.41-.57 2.8-1.19 4.23-1.89 4 1.5 8.31 2.92 12.76 4.2 24.6 7.1 50.35 9.3 57 9.3h.85a10.65 10.65 0 0 0 9.88-7.65 13.16 13.16 0 0 0 .56-3.12v-.71c.31-5.39.69-12.11 6.26-33.26 3.46-13.14 4-27 3.77-36.55.46-.13.86-.26 1.21-.4l.55-.21c3.21-1.24 5.32-2.06 6.08-4 .82-2.09-.28-5.05-2.59-9.8-1.76-3.62-4.18-10.32-7.17-19.92-2.54-8.15-5.49-18.34-8.76-30.28-3.15-11.53-4-14.63-11.1-15.48a77.84 77.84 0 0 1-11.19-2.22h-.05c-5.65-1.33-11.62-1.64-21.36-1.78-7.71-.11-11.05-.73-19.86-4.89-1.05-.5-2.16-1-3.38-1.63a27.44 27.44 0 0 0-4.26-1.61 184.53 184.53 0 0 1-.86-28.7c.07-1.76.17-3.54.28-5.31a52.76 52.76 0 0 0 3.65-6.06 70 70 0 0 0 3.61-8.33c.57-1.57 1.12-3.17 1.66-4.76 1.12-3.32 2.16-6.66 3.09-10a2.63 2.63 0 0 0 1.29.33c1.38 0 2.88-1 4.48-2.85a25.09 25.09 0 0 0 2.61-3.77c3-5.27 5.66-13.76 5-18.84a5.75 5.75 0 0 0-1.62-3.62 3.75 3.75 0 0 0-2.57-1 6.31 6.31 0 0 0-3.81 1.64c0-.51.07-1 .1-1.45 0-.83.09-1.68.12-2.62.41-13.2-2.09-24.34-7.43-33.12a42.93 42.93 0 0 0-4.5-6.12 44.2 44.2 0 0 0-4.12-4.08l-.17-.11-.8-.68A38 38 0 0 0 109.87 0z"/><path class="cls-2" d="M69.8 81.95a113.66 113.66 0 0 1-4.56-21c-1.51-2-3.57-3.45-6.2-2.7a5.3 5.3 0 0 0-3.9 4c-.87 3.35.48 7.88 1.68 10.67 1 2.33 4.51 9.16 8 12.6a3.13 3.13 0 0 1 .75.52 3.26 3.26 0 0 0 4.23-4.09z"/><path class="cls-3" d="M67.59 65.37a18 18 0 0 0-2.35-4.47A113.84 113.84 0 0 0 69.81 82c.53 1.95-1.54 4.91-4.21 4a3.13 3.13 0 0 0-.75-.52c1.71 1.68 3.41 2.56 4.82 1.71a4 4 0 0 0 1.4-1.65 11.1 11.1 0 0 0 .85-2.29z"/><path class="cls-2" d="M158 59.84a4.83 4.83 0 0 0-1.3-3c-1.9-1.71-4.23-.23-5.9 1.36-.91 5.24-1.68 10.66-2.69 16l.09-.19-.09.19q-.53 2.9-1.21 5.8a.77.77 0 0 0 .32 1 3.11 3.11 0 0 0 3.47.7 24.06 24.06 0 0 0 2.47-3.64c2.94-5.2 5.49-13.45 4.84-18.22z"/><path class="cls-3" d="M147.22 81a1.24 1.24 0 0 1-.32-1c1.69-7.16 2.67-14.65 3.92-21.79a17.94 17.94 0 0 0-2.14 2.48l-3.83 21a3.51 3.51 0 0 0 1.08 2.12 1.94 1.94 0 0 0 .17.14c1.11.7 2.77-.08 4.6-2.25a3.11 3.11 0 0 1-3.48-.7z"/><path d="M220.47 226.25c-2-4.16-4.64-11.77-7.23-20.06-3.48-11.14-6.91-23.5-8.77-30.31-3.25-11.87-4-14-10.25-14.75a78.1 78.1 0 0 1-11.36-2.25c-5.81-1.37-12.27-1.63-21.14-1.75-7.92-.11-11.48-.83-20.27-5-1.05-.5-2.17-1-3.39-1.64-11.42-5.62-44.08-6.12-55.21 1.5a39.47 39.47 0 0 1-6.05 3.26c-13.77 6.16-37.2 11-37.2 11-5.83 1.49-6.12 6-9.62 18.5-1.69 6-5.89 18.11-10.53 30.36-5 13.19-10.52 26.57-14 32.75-6.75 12.1-6.75 13.64 6.25 10.89 0 0 45.5-4.87 53.75-3.75s-2.5-6-3.88-18.62S54 195.5 54 195.5l120.12 41.75c11.5 5 36.13 4.25 42.88 1.63s8.22-2.88 3.47-12.63z"/><path d="M160.22 269c3-10 3-19 6-29 .65-1.3 3-3.88 5.4-4.13 6.37-14.53 9.16-29.19 11-45-.18-1.92-.37-3-.37-3L48.34 190s-.23 3.37-.19 8.34c2.42 14.11 7.91 28 13.07 40.66 5.83 12.63 6 27.14 6 40.79a23.46 23.46 0 0 1-5.21.47c-.34 11.53-.91 22.87-.91 22.87l115.9-2.88s-.56-7.93-.72-23.13c-7.75.08-16.98-4.44-16.06-8.12z"/><path class="cls-4" d="M182.59 190.84c-1.81 15.83-4.6 30.49-11 45-2.39.25-4.74 2.83-5.4 4.13-3 10-3 19-6 29-.92 3.68 8.31 8.2 16 8.12v-2.75c-.12-17-.37-36.62 4-55.25a90.29 90.29 0 0 0 2.4-28.25zM67.22 279.79c0-13.65-.17-28.16-6-40.79-5.16-12.62-10.64-26.55-13.07-40.66.05 7.75.75 19.42 3.94 28.41C57.34 241.5 62 250 62.22 263c.09 4.59 0 11-.21 17.25a23.46 23.46 0 0 0 5.21-.46z"/><path class="cls-3" d="M95.59 131c13.75 10.31 29 .68 36.79-11.75.31-7.49.88-12.59.88-12.59L89.09 118s.31 3 .39 7.77a48.63 48.63 0 0 0 6.11 5.23z"/><path class="cls-2" d="M134.19 154.38c-.16-.87-.31-1.75-.45-2.64-1.74-11.18-1.73-23.54-1.36-32.49-7.82 12.43-23 22.06-36.79 11.75a48.63 48.63 0 0 1-6.11-5.23 129.22 129.22 0 0 1-2.83 29.75q-.3 1.34-.64 2.68c15.92 7.75 33.35 4.64 48.18-3.82z"/><path class="cls-3" d="M86 158.2c-.68 2.66-1.47 5.33-2.42 8l54.5 1.5a57.76 57.76 0 0 1-3.9-13.28c-14.82 8.42-32.25 11.53-48.18 3.78z"/><path class="cls-5" d="M87 119.92c5 5.84 11.82 9.29 22 8.17 10-1.1 17.33-6.1 22.71-13.08a49.76 49.76 0 0 0 4.75-7.55c-12.05 16-31.73 22.79-49.46 12.46z"/><path class="cls-3" d="M71.07 57.53l-4.65 4.8c0 .29.09.58.13.86l4.54-4.54zm2.34 6.96A30.64 30.64 0 0 0 100.22 63a38.29 38.29 0 0 0-26.81 1.49zm63.07-18.59c-4.19-5.51-13.28-5.59-18.3-.92 6.35-1.98 12.61-2.29 18.3.92z"/><path class="cls-2" d="M149.78 58.73c.11-1.17.21-2.34.28-3.5a62.69 62.69 0 0 1-13.37-40.58c-19 6-39.67 5.78-59.63 2.9-.23 14.11-3.56 27.8-11.22 39.51q.21 2.63.57 5.26l4.65-4.8v1.12l-4.54 4.54C68.29 75.62 72.11 88 76 98.53c18.8-11.51 44-10.15 65.61-4 3.56-10.52 6.83-22.71 8.06-34.87l-6.82-4v-1.08zM72.22 49c.4-.4.81-.78 1.23-1.14.9-1.31 1.29-3.13 2.77-3.86 5.75-3.84 13.34-4.89 17.48.32a19.66 19.66 0 0 0-20.25 3.55A3.3 3.3 0 0 1 72.22 49zm1.19 15.49A38.29 38.29 0 0 1 100.22 63a30.64 30.64 0 0 1-26.81 1.49zm63.07-18.59c-5.69-3.22-12-2.86-18.3-.92 5.02-4.66 14.11-4.58 18.3.92zM117.06 62c8.27.16 16.53.64 24.8-.79-7.37 5.31-17.14 4.79-24.8.79z"/><path class="cls-2" d="M72.22 49a3.3 3.3 0 0 0 1.23-1.14c-.45.36-.84.74-1.23 1.14z"/><path class="cls-3" d="M93.7 44.31C89.56 39.1 82 40.16 76.22 44c-1.47.74-1.86 2.55-2.77 3.86a19.66 19.66 0 0 1 20.25-3.55zM117.06 62c7.66 4 17.43 4.48 24.8-.79-8.27 1.47-16.54.98-24.8.79zm25.84-7.47v1.08l6.82 4c0-.31.06-.61.08-.92z"/><path class="cls-6" d="M141.64 94.51C120 88.37 94.82 87 76 98.53c.72 1.94 1.45 3.82 2.16 5.61a66.21 66.21 0 0 0 6.41 12.69 34.49 34.49 0 0 0 2.43 3.09c17.76 10.33 37.44 3.54 49.45-12.46a68.8 68.8 0 0 0 3.55-8.21q.81-2.3 1.64-4.74z"/><path class="cls-5" d="M134.8 15.2c-14.1 1.61-28.2 3.74-42.29 4 14.32.88 28.69-.04 42.29-4zm13.68 37.96q.77 1.05 1.58 2.07c.05-.87.09-1.73.11-2.59a13.48 13.48 0 0 1-3.72-2.47 60.39 60.39 0 0 0 2.03 2.99zm-82.81 1.22c0 .89.1 1.79.18 2.69A62.91 62.91 0 0 0 69 51.63a10.41 10.41 0 0 1-3.33 2.75z"/><path class="cls-6" d="M142.88 20.07a41.68 41.68 0 0 0-4.39-6 43 43 0 0 0-4-4c-.3-.26-.6-.52-.91-.78-11-8.94-24.91-10.18-37.22-6.1a45.16 45.16 0 0 0-20.71 14.16 40.4 40.4 0 0 0-3.39 4.81C67 31 65.25 41.48 65.58 52.39c0 .66.05 1.32.09 2A10.41 10.41 0 0 0 69 51.63a72.2 72.2 0 0 0 7.42-24.85 90.4 90.4 0 0 0 .62-9.22c5.12.74 10.28 1.29 15.44 1.62 14.1-.23 28.2-2.36 42.29-4 .63-.18 1.27-.36 1.89-.55a63.15 63.15 0 0 0 9.76 35.52 13.48 13.48 0 0 0 3.72 2.47c.4-11.72-1.5-23.1-7.26-32.55z"/><path class="cls-7" d="M136.79 44.81c-3.32-4.6-10.09-11-17.92-1.5 5.88-2.22 12.94-2.12 17.92 1.5z"/><path class="cls-8" d="M118.87 43.31c-.55.66-1.09 1.37-1.65 2.19 0 0 12.13-7.37 21.75 2.88a26.78 26.78 0 0 0-2.18-3.56c-4.98-3.63-12.04-3.73-17.92-1.51zM73.35 46.6A20.1 20.1 0 0 0 72 49.75c6.22-7.34 17.47-11.86 24.5-2.25a14.85 14.85 0 0 0-2.27-4.41c-6.82-3.67-14.96-2.5-20.88 3.51z"/><path class="cls-7" d="M83.59 38.4c-4.4.4-8.09 4.21-10.24 8.2 5.92-6 14.06-7.18 20.85-3.52a11.57 11.57 0 0 0-10.61-4.68z"/><path class="cls-3" d="M58.2 252.16a10.51 10.51 0 0 0-1.89.82l-4.59 9.85 5.59 10.29c2.17.18 4 .34 5.7.53-5.14-6.25-4.9-14.43-4.81-21.49z"/><path class="cls-2" d="M66.09 259.91L62.77 251a31.18 31.18 0 0 0-4.57 1.18c-.09 7.06-.33 15.25 4.8 21.5l1.2.14z"/><path class="cls-3" d="M16.28 304.43a20.55 20.55 0 0 1 .19 2.82c0 6.38 9.5 8 25.38 10 10.39 1.31 35.87 1.54 58.3-2.66-28.88 3.01-60.82 6.94-83.87-10.16z"/><path class="cls-2" d="M72.22 279a26.32 26.32 0 0 0-3.08-2c-5-2-9.55-.52-14 1.56a23.75 23.75 0 0 0 2.34-7.79 70.92 70.92 0 0 0-1.68-20.15c-.12-.52-.24-1-.36-1.47-15.1-2.21-31.59 1.25-45.72 6.92-.09.74-.18 1.5-.25 2.33a78.28 78.28 0 0 0 1 18.71c2.94 18.27 5.17 22.61 5.81 27.3 23 17.11 55 13.17 83.86 10.16a109.34 109.34 0 0 0 20.31-5.57c-18.84-5.83-31.33-19.68-48.23-30z"/><path class="cls-3" d="M55.45 249.16a43.62 43.62 0 0 0-1.45-4.79c-16.87-5.75-41.62 2.13-41.62 2.13s-1.77 3-2.62 9.59c14.1-5.68 30.59-9.09 45.69-6.93zm31.02 25.59a68.71 68.71 0 0 0-23.7-.2A35.76 35.76 0 0 0 57 276c.25-1.78.41-3.52.52-5.22a23.75 23.75 0 0 1-2.34 7.79c4.44-2.07 9-3.52 14-1.56a26.32 26.32 0 0 1 3.08 2c16.9 10.33 29.39 24.18 48.23 30a50.91 50.91 0 0 0 10-5.22s-26.02-25.92-44.02-29.04zM69.14 277"/><path d="M52.09 239.75l-40.18 4.06-7.86 12.35s.41-.23 1.18-.61c4.93-2.43 25.13-11.12 53.82-6.22zm85.63-89l-1.26 1c-26.92 21.48-45 10.49-51.34 5a22.22 22.22 0 0 1-2.53-2.51l-.25 13.42 57.37 1.25z"/><path class="cls-5" d="M109.87 99.23a88.7 88.7 0 0 1-10.87.44 44.24 44.24 0 0 1-4.77-.44 17.53 17.53 0 0 1-2-.4 16.53 16.53 0 0 0 1.91.62 39.91 39.91 0 0 0 4.76.93 54.65 54.65 0 0 0 11.06.26 68.07 68.07 0 0 0 10.87-2c.91-.24 1.78-.46 2.57-.68l2.08-.64 1.91-.59-2 .38-2.13.41-2.61.43c-3.65.62-8.04 1.05-10.78 1.28zm-1.1 6.05a19.34 19.34 0 0 1-5.07.1 10.83 10.83 0 0 1-2.18-.55 5 5 0 0 1-.85-.4 4.82 4.82 0 0 0 .79.54 10.24 10.24 0 0 0 2.14.88 14.21 14.21 0 0 0 5.28.38 17.37 17.37 0 0 0 2.42-.5 26 26 0 0 0 2.64-.95 22.52 22.52 0 0 0 2.08-1l.85-.43-.9.29c-.56.19-1.32.44-2.18.66s-1.8.43-2.67.62-1.71.3-2.35.36z"/><path class="cls-3" d="M138.09 311.25c26.67 7.7 53.84 9.47 57.46 9.25a9.7 9.7 0 0 0 9-6.95c-21.88 6.9-44.55.74-66.46-2.3z"/><path class="cls-2" d="M62.77 251L61 262.39l3.23 11.41 1.06.15a55.45 55.45 0 0 1 .75-7.31 47.57 47.57 0 0 1 3.77-16.51 59.15 59.15 0 0 0-7.04.87z"/><path class="cls-3" d="M69.78 250.13A47.57 47.57 0 0 0 66 266.64 52.11 52.11 0 0 1 71.78 250zm144.89-18.81c-.07-.85-.12-1.32-.12-1.32s-23.54-11.74-35.17 2.75c11.56-4.29 23.69-5.13 35.29-1.43z"/><path class="cls-2" d="M214.67 231.32c-11.61-3.7-23.73-2.86-35.29 1.42-.34.42-.67.87-1 1.34-.18.26-.34.53-.52.79a46 46 0 0 0-7.07 31.46l8.42 28.17 25.83 16.17c.33-5.67.5-12 6.33-34.17 4.7-17.84 3.88-37.08 3.39-43.91-.02-.49-.06-.91-.09-1.27z"/><path class="cls-3" d="M199.3 236a52.91 52.91 0 0 0-24.74 4.85 45.45 45.45 0 0 0-3.76 25.44l.25.85c8.06-.74 11.64.77 15.58 1.86 4.5 1.25 6 3.25 6.58 2.58 2.25-2 2.75-4.33 1.83-5.17-7.08-6.5-24.37-6.54-24.37-6.54 6.67-5.22 24-.12 26 .79s3.08 1.58 4.25-.92 1-3.75-.33-4.92c-8.75-6.42-28.42-3.5-28.42-3.5 8.21-8.08 25.08-7.67 29-6.67s4.5-2.08 5.25-4.83-.87-3.36-7.12-3.82z"/><path d="M209.84 223l-25.62 1.49-7.62 8.88s13.21-10.61 39.14-2.64l.49.14z"/><path class="cls-3" d="M146.84 265.37l-.87.91c-.53.58-1.06 1.16-1.56 1.73a98.91 98.91 0 0 0-6.37 8.15h26.33l.75-10.49c1.26-.19 2.42-.33 3.51-.44l1-.08c-6.91-3.06-15.1.75-22.79.22z"/><path class="cls-2" d="M197.13 234.08c-16.59-.73-27.67 6.42-27.67 6.42s13.07-13.49 26.58-16.58c2.79-.64 2.1-7.24.42-7.42-6.88-.72-18.92 8.33-25.92 14s-8.46 8.92-9.42 14.63c-1 6.15-2.17 9.11-8.58 15-1.8 1.67-3.91 3.31-5.71 5.2 7.69.53 15.88-3.27 22.8-.21 7.52-.57 11 .86 14.83 1.92 4.5 1.25 6 3.25 6.58 2.58 2.25-2 2.75-4.33 1.83-5.17-7.07-6.45-24.36-6.45-24.36-6.45 6.67-5.22 24-.12 26 .79s3.08 1.58 4.25-.92 1-3.75-.33-4.92c-8.75-6.42-28.42-3.5-28.42-3.5 8.21-8.08 25.08-7.67 29-6.67s4.5-2.08 5.25-4.83-.88-3.45-7.13-3.87z"/><path class="cls-3" d="M113.08 255.56c-1.38-.46-2.73-.91-4.11-1.33a86.43 86.43 0 0 0-12.72 32.4c3.46-11.32 7.41-23.54 16.83-31.07z"/><path class="cls-2" d="M193.88 279.33l-23.08-13c-11.75-2.58-22.06 2.41-22.06 2.41-10.4-2.53-23.66-9.08-31.94-11.91l-3.72-1.27c-9.42 7.53-13.37 19.75-16.83 31.07-.23 1.38-.42 2.78-.57 4.19 2.27 1.57 4.77 3.29 7.55 5.17 9.83 6.68 22.3 11.62 34.87 15.25 21.87 3 44.58 9.2 66.44 2.3a12.12 12.12 0 0 0 .52-2.88z"/><path class="cls-4" d="M107.57 256.52c.46-.77.91-1.53 1.39-2.29-6.64-2-13.92-3.49-27.58-4.15-3.67-.18-6.85-.18-9.6-.06-.32.58-.6 1.17-.9 1.75a90.64 90.64 0 0 1 36.69 4.75z"/><path d="M70.88 251.77a52.68 52.68 0 0 0-5.63 22.17c1.28.19 2.43.41 3.54.69C75.42 276.3 80 280 95.67 290.82A83.75 83.75 0 0 1 107.25 257l.32-.53a90.64 90.64 0 0 0-36.69-4.7z"/><path class="cls-9" d="M66.36 62l.08.64 5-5.15a1.58 1.58 0 0 0 .68-1.77A57.65 57.65 0 0 0 66.36 62z"/><path class="cls-10" d="M72.16 55.73a2.58 2.58 0 0 0-.48-.86l-5.4 6.43.08.7a57.65 57.65 0 0 1 5.8-6.27zM115 54.4v-.9s-6-5.33-15 0v1.27c4.1-3.17 10.56-4.96 15-.37z"/><path class="cls-3" d="M100 55.17v1c8.67-7.93 15-.5 15-.5v-.87c-4.44-4.58-10.9-2.8-15 .37z"/><path class="cls-9" d="M100 54.76v1c8.67-7.93 15-.5 15-.5v-.86c-4.44-4.59-10.9-2.8-15 .36z"/><path class="cls-11" d="M100.16 52.64c-.09-.42-.16-.64-.16-.64a31.65 31.65 0 0 0-6.76-1.26c-.64-.06-1.32-.11-2-.15h-4.71c-.64 0-1.3.08-2 .13a56.62 56.62 0 0 0-12.87 2.65s-.16 1.26-.22 3c8.56-5.37 18.8-4.62 28.72-3.73z"/><path class="cls-12" d="M71.46 56.4a22.16 22.16 0 0 0 .88 7.6s.52.1 1.42.23a64.27 64.27 0 0 0 26.48-3.44 23.28 23.28 0 0 0-.08-8.11C90.24 51.75 80 51 71.46 56.4z"/><path class="cls-13" d="M73.76 64.19c.94.14 2.3.32 4 .47h.57l1.05.08 1.1.07h1.85a63.92 63.92 0 0 0 7.18-.15c.76-.06 1.52-.15 2.29-.24a37.83 37.83 0 0 0 8-1.83c.17-.67.29-1.32.4-2a64.27 64.27 0 0 1-26.44 3.6z"/><path class="cls-10" d="M100.42 62.43a23 23 0 0 0 .07-10.57.5.5 0 0 0-.32-.34 31.89 31.89 0 0 0-6.88-1.29 46.64 46.64 0 0 0-6.79-.15c-.65 0-1.32.08-2 .14a57.34 57.34 0 0 0-13 2.67.5.5 0 0 0-.34.41c0 .27-.83 6.54.69 10.82 9.28.88 19.31 1.63 28.57-1.69zm-22.65 1.73c-2.52-.23-4.37-.53-5.05-.65C71.58 60 72 55 72.14 53.75a56.28 56.28 0 0 1 12.45-2.53 51.066 51.066 0 0 1 6.63-.13c.71 0 1.38.08 2 .14a33.78 33.78 0 0 1 6.39 1.15 22.78 22.78 0 0 1-.17 9.94 37.79 37.79 0 0 1-7.7 1.68c-.76.1-1.52.18-2.27.24a65.7 65.7 0 0 1-9 .08c-.96-.01-1.86-.08-2.7-.16z"/><path class="cls-9" d="M71.87 64.12a.5.5 0 0 0 .38.32s2.18.41 5.43.71c.84.08 1.76.15 2.74.2 1.37.08 2.72.12 4 .12 1.74 0 3.45-.07 5.09-.2.77-.06 1.54-.15 2.31-.25a38.41 38.41 0 0 0 8.18-1.84.5.5 0 0 0 .32-.35c0-.13.06-.26.09-.4-9.25 3.32-19.28 2.57-28.54 1.69z"/><path class="cls-10" d="M149.85 58.18L142 52.62a2.54 2.54 0 0 0-.19 1.13c2.77 1.5 5.27 3.6 8 4.9z"/><path class="cls-9" d="M141.78 53.75a1.4 1.4 0 0 0 .65 1.12l7.33 4.33.05-.55c-2.81-1.29-5.27-3.4-8.03-4.9z"/><path class="cls-11" d="M142.23 52.29c-.08-.38-.16-.77-.26-1.17a47.9 47.9 0 0 0-7.47-1.31l-1.15-.09-.92-.08h-.39c-.51 0-1 0-1.57-.05h-3.57l-1.41.09A36.16 36.16 0 0 0 115 52s-.12.59-.22 1.55a58.17 58.17 0 0 1 27.45-1.26z"/><path class="cls-12" d="M114.8 53.54a19.76 19.76 0 0 0 .62 7.66 27.18 27.18 0 0 0 2.63.79l.24.01c8.35.13 16.19.3 24-2.34a18.08 18.08 0 0 0 0-7.42 58.17 58.17 0 0 0-27.49 1.3z"/><path class="cls-13" d="M118.29 62c.58.14 1.23.29 2 .44s1.6.28 2.5.4l.6.16c.69.08 1.42.15 2.18.2l.92.06h2.92a39.25 39.25 0 0 0 12.47-2.2 9.32 9.32 0 0 0 .39-1.37c-7.79 2.65-15.63 2.49-23.98 2.31z"/><path class="cls-10" d="M142.52 60.76a18.1 18.1 0 0 0-.07-9.76.5.5 0 0 0-.35-.35 48 48 0 0 0-7.55-1.33c-.79-.08-1.61-.15-2.48-.2a50.09 50.09 0 0 0-5.2 0l-1.43.09a36.59 36.59 0 0 0-10.61 2.36.5.5 0 0 0-.3.36 21 21 0 0 0 .42 9.46 47.29 47.29 0 0 0 27.57-.63zM120.36 62c-.82-.16-1.55-.33-2.18-.49-1.16-.29-2-.56-2.35-.69a20.39 20.39 0 0 1-.37-8.46 35.78 35.78 0 0 1 10.06-2.2l1.4-.09a48.77 48.77 0 0 1 5.09 0c.85 0 1.66.12 2.44.2a50.17 50.17 0 0 1 7.1 1.22 16.92 16.92 0 0 1-.06 9.16 38.83 38.83 0 0 1-12.09 2.09h-2.64a43.69 43.69 0 0 1-6.4-.74z"/><path class="cls-9" d="M115 61.38a.5.5 0 0 0 .29.29 27.27 27.27 0 0 0 2.68.8c.65.16 1.39.33 2.23.5a44.67 44.67 0 0 0 6.55.78h2.7a39.79 39.79 0 0 0 12.63-2.23.5.5 0 0 0 .29-.28s.08-.21.18-.51a47.29 47.29 0 0 1-27.55.65z"/><path class="cls-3" d="M114.75 79.2a13.78 13.78 0 0 1-.72-1.45q-.57-1.26-1-2.57c-2.31-6.6-2.94-14-3-20.94-.35 7-.18 14.62 2.13 21.25 1.08 3.82 3.59 5.51-1.26 7.84-2.56 1.23-7.21 1.62-9.64-.28l-.56-.42c2.62 4.59 12.34 3.48 14.09-1.4a2.62 2.62 0 0 0-.04-2.03z"/></svg>