<svg id="Layer_1" data-name="Layer 1" xmlns="http://www.w3.org/2000/svg" viewBox="0 0 88 88"><defs><style>.cls-1{fill:#49310a}.cls-2{fill:#483316}</style></defs><title>sprite</title><path class="cls-1" d="M19.42 2.83a4.33 4.33 0 0 0 2-2.49 10.62 10.62 0 0 1-2.87 1A4.26 4.26 0 0 0 15.26 0 4.42 4.42 0 0 0 12 1.32a4.35 4.35 0 0 0-1.29 3.18 3.16 3.16 0 0 0 .14 1A12.1 12.1 0 0 1 1.53.81a4.52 4.52 0 0 0-.62 2.26 4.36 4.36 0 0 0 2 3.77 5 5 0 0 1-2-.57 4.48 4.48 0 0 0 1 2.92 4.43 4.43 0 0 0 2.59 1.58 4.84 4.84 0 0 1-1.2.14 2.24 2.24 0 0 1-.81-.1 4.32 4.32 0 0 0 1.58 2.25A4.46 4.46 0 0 0 6.7 14a8.8 8.8 0 0 1-5.6 1.91 7.67 7.67 0 0 1-1.1 0 12.46 12.46 0 0 0 6.94 2 12.31 12.31 0 0 0 6.94-2A12.44 12.44 0 0 0 18.32 11a13.17 13.17 0 0 0 1.43-6v-.55A9.51 9.51 0 0 0 22 2.1a10 10 0 0 1-2.58.73z"/><path class="cls-2" d="M26.89 46.44H22V29.33h4.89v17.11zm-2.45-19.55a2.37 2.37 0 0 1-2.44-2.3v-.15A2.37 2.37 0 0 1 24.3 22h.14a2.37 2.37 0 0 1 2.45 2.29v.15a2.37 2.37 0 0 1-2.29 2.45h-.16zM44 46.44h-4.89v-9.77a2.44 2.44 0 0 0-2.44-2.44 2.37 2.37 0 0 0-2.44 2.3v9.92h-4.9V29.33h4.89v3c1-1.32 2.44-3 4.4-3 2.92 0 5.38 2.67 5.38 6.11v11zM55 44a11 11 0 0 0-3.48 21.44.55.55 0 0 0 .75-.53V63c-3.06.66-3.71-1.47-3.71-1.47A2.91 2.91 0 0 0 47.35 60c-1-.68.08-.67.08-.67a2.31 2.31 0 0 1 1.68 1.13 2.34 2.34 0 0 0 3.18.92 2.35 2.35 0 0 1 .71-1.52c-2.44-.28-5-1.22-5-5.44a4.25 4.25 0 0 1 1.13-3 4 4 0 0 1 .11-2.91s.92-.3 3 1.13a10.43 10.43 0 0 1 5.51 0c2.1-1.42 3-1.13 3-1.13a4 4 0 0 1 .11 2.91 4.24 4.24 0 0 1 1.13 3c0 4.23-2.57 5.16-5 5.43a2.63 2.63 0 0 1 .75 2v3a.55.55 0 0 0 .76.53A11 11 0 0 0 55 44zm29.33 22H69.67A3.68 3.68 0 0 0 66 69.67v14.66A3.69 3.69 0 0 0 69.71 88h14.67A3.67 3.67 0 0 0 88 84.33V69.67A3.69 3.69 0 0 0 84.29 66zM69.92 85l-1.66-1.61 5.5-5.5.63.63zm-.63-14.73l.63-.63 7.08 5.7 7.08-5.7.62.63-7.7 9.08zM84.08 85l-4.47-6.53.63-.63 5.5 5.5z"/></svg>